# xmcd CD database file
#
# Track frame offsets:
#	193
#	9928
#	19818
#	29370
#	37045
#	47355
#	59900
#	70340
#	82403
#	91338
#	102030
#	112870
#	122985
#	133660
#	143450
#	156253
#	167578
#	175595
#	186960
#	200685
#	212558
#	223745
#	233905
#	243670
#	256733
#	268798
#	279853
#	291260
#	302468
#	313800
#
# Disc length: 4356 seconds
#
# Revision: 5
# Processed by: cddbd v1.5.1PL0 Copyright (c) Steve Scherf et al.
# Submitted via: CDex 1.50
#
DISCID=b311021e
DTITLE=Various Artists of the 50's - Kings Of Rock'n'Roll
DYEAR=1900
DGENRE=Rock and Roll
TTITLE0=Johnny and The Hurricanes - Red River Rock
TTITLE1=Bill Haley - Rock around the clock
TTITLE2=Little Richard - Long tall Sally
TTITLE3=The Coasters - Yakety yak
TTITLE4=Duane Eddy - Rebel rouser
TTITLE5=Lloyd Price - Stagger Lee
TTITLE6=Little Richard - Lucille
TTITLE7=Frankie Ford - Sea cruise
TTITLE8=Del Shannon - Hats off to Larry
TTITLE9=Little Richard - Ooh my soul
TTITLE10=Chubby Checker - Let´s twist again
TTITLE11=The Crystals - Da doo ron ron
TTITLE12=Sam The Sham and The Pharaohs - Wolly bully
TTITLE13=The Champs - Tequila
TTITLE14=The Shangrilas - Leader of the pack
TTITLE15=Del Shannon - Runaway
TTITLE16=Bill Haley - See you later alligator
TTITLE17=Danny and The Juniors - Rock and Roll is here
TTITLE18=Fats Domino - Blueberry hill
TTITLE19=Chubby Checker - The twist
TTITLE20=Gene Chandler - Duke of Earl
TTITLE21=Piano Smith - Rockin' Pneumonia and The Boogie Woogie Flu
TTITLE22=Little Richard - Good golly Miss Molly
TTITLE23=Ray Peterson - Tell Laura I love her
TTITLE24=Danny and The Juniors - At the hop
TTITLE25=Lloyd Price - Personality
TTITLE26=Chuck Berry - Nadine
TTITLE27=Little Richard - Tutti Frutti
TTITLE28=Fats Domino - Ain´t that a shame
TTITLE29=Bill Haley - Shake rattle and roll
EXTD=Compilation of various artists of the\n50's era of Rock'n'Roll
EXTT0=
EXTT1=
EXTT2=
EXTT3=
EXTT4=
EXTT5=
EXTT6=
EXTT7=
EXTT8=
EXTT9=
EXTT10=
EXTT11=
EXTT12=
EXTT13=
EXTT14=
EXTT15=
EXTT16=
EXTT17=
EXTT18=
EXTT19=
EXTT20=
EXTT21=
EXTT22=
EXTT23=
EXTT24=
EXTT25=
EXTT26=
EXTT27=
EXTT28=
EXTT29=
PLAYORDER=
